<svg xmlns="http://www.w3.org/2000/svg" viewBox="0 0 23.34 13.73"><defs><style>.ec340431-9ae2-41af-9f95-281ec37bcb4d{fill:#fff;fill-rule:evenodd;}.bcef7c77-2259-4779-afbb-d63eceedfde6{fill:none;stroke:#fff;stroke-linecap:round;stroke-linejoin:round;stroke-width:2.25px;}</style></defs><g id="b55865d6-59ca-4484-bcf9-8917982e9b4f" data-name="Слой 2"><g id="abe7fdcb-bcc9-447e-9780-82356d9088db" data-name="Layer 1"><path class="ec340431-9ae2-41af-9f95-281ec37bcb4d" d="M13.73,11a1.37,1.37,0,1,0,1.37,1.37A1.37,1.37,0,0,0,13.73,11ZM9.61,0V1.37H11l2.47,5.22-1,1.65a2.72,2.72,0,0,0-.13.68,1.38,1.38,0,0,0,1.37,1.38H22V8.92H14a.14.14,0,0,1-.14-.13V8.72l.62-1.17h5.08a1.24,1.24,0,0,0,1.16-.68L23.2,2.4a.36.36,0,0,0,.14-.34.65.65,0,0,0-.69-.69H12.49L11.88,0Zm11,11A1.37,1.37,0,1,0,22,12.36,1.37,1.37,0,0,0,20.6,11Z"/><line class="bcef7c77-2259-4779-afbb-d63eceedfde6" x1="1.12" y1="6.87" x2="6.68" y2="6.87"/><line class="bcef7c77-2259-4779-afbb-d63eceedfde6" x1="3.9" y1="4.09" x2="3.9" y2="9.64"/></g></g></svg>