<svg xmlns="http://www.w3.org/2000/svg" viewBox="0 0 13.73 13.73"><defs><style>.a2e748cb-3c31-4156-a248-235f996dd587{fill:#fff;fill-rule:evenodd;}</style></defs><g id="e58a0fa4-4cd9-4593-b303-3b67160dc600" data-name="Слой 2"><g id="a9f288ae-5253-4832-a389-7f3924e1b995" data-name="Layer 1"><path class="a2e748cb-3c31-4156-a248-235f996dd587" d="M4.12,11a1.37,1.37,0,1,0,1.37,1.37A1.37,1.37,0,0,0,4.12,11ZM0,0V1.37H1.37L3.84,6.59l-1,1.65a2.72,2.72,0,0,0-.13.68A1.38,1.38,0,0,0,4.12,10.3h8.24V8.92h-8a.13.13,0,0,1-.14-.13V8.72l.61-1.17H10a1.24,1.24,0,0,0,1.16-.68L13.59,2.4a.36.36,0,0,0,.14-.34A.65.65,0,0,0,13,1.37H2.88L2.27,0ZM11,11a1.37,1.37,0,1,0,1.37,1.37A1.37,1.37,0,0,0,11,11Z"/></g></g></svg>