<svg xmlns="http://www.w3.org/2000/svg" viewBox="0 0 52.05 40.15"><defs><style>.bb5fc950-5afd-484a-8194-4ac9386a073f{fill:#9c3;}.b7f365b6-1d7f-4ced-8635-6cd0aea44fa8,.bb5fc950-5afd-484a-8194-4ac9386a073f{fill-rule:evenodd;}.b7f365b6-1d7f-4ced-8635-6cd0aea44fa8{fill:#fff;}</style></defs><g id="b3736e81-db13-4ff6-a66f-d93b395f3ad7" data-name="Слой 2"><g id="bba9b400-446c-461f-816a-a511e6b4571c" data-name="Layer 1"><path class="bb5fc950-5afd-484a-8194-4ac9386a073f" d="M25.73,0A20,20,0,0,1,45.64,17.41l.14.15.14.16a2.1,2.1,0,0,1,2.25-.09l1,.53A2.11,2.11,0,0,1,50,21l-.06.11-.84,1.34.16.05a4.42,4.42,0,0,1,1.47.89,4,4,0,0,1,1,1.49l0,.14a4.74,4.74,0,0,1,.26,1.57v.53a4.45,4.45,0,0,1-.31,1.66h0a4.19,4.19,0,0,1-2.47,2.36,4.77,4.77,0,0,1-1.65.28,4.38,4.38,0,0,1-3.15-1.19L44.26,30a2.11,2.11,0,0,1-1.35.47c-3.52,5.8-8.83,9.67-17.18,9.67s-17.17-6-19.35-14.72H2.24A2.71,2.71,0,0,1,0,22.82V19.94a2.44,2.44,0,0,1,2.11-2.47H5.78A19.83,19.83,0,0,1,25.73,0Z"/><path class="b7f365b6-1d7f-4ced-8635-6cd0aea44fa8" d="M3.27,19.94H8.64a.93.93,0,0,1,.93.93v1a.93.93,0,0,1-.93.93H3.27a.93.93,0,0,1-.93-.93v-1a.93.93,0,0,1,.93-.93Zm36.91.6a2.1,2.1,0,0,1,.64-1.6,2.3,2.3,0,0,1,1.67-.62,2.37,2.37,0,0,1,1.69.61,2.15,2.15,0,0,1,.64,1.65v.53a2.07,2.07,0,0,1-.64,1.59,2.33,2.33,0,0,1-1.67.61,2.38,2.38,0,0,1-1.69-.61,2.15,2.15,0,0,1-.64-1.64v-.52Zm1.41.53a1,1,0,0,0,.25.71.86.86,0,0,0,.65.26.82.82,0,0,0,.64-.27,1.09,1.09,0,0,0,.23-.72v-.54a1.06,1.06,0,0,0-.23-.71.92.92,0,0,0-1.3,0,1,1,0,0,0-.24.74v.53Zm3.7,5.48a2.09,2.09,0,0,1,.65-1.6,2.63,2.63,0,0,1,3.36,0,2.15,2.15,0,0,1,.64,1.66v.53a2.12,2.12,0,0,1-.63,1.59,2.34,2.34,0,0,1-1.68.61,2.39,2.39,0,0,1-1.7-.61,2.13,2.13,0,0,1-.64-1.62v-.55Zm1.41.58a1,1,0,0,0,.27.7.85.85,0,0,0,.66.29c.6,0,.89-.33.89-1v-.57a1,1,0,0,0-.24-.72,1,1,0,0,0-1.33,0,1.09,1.09,0,0,0-.25.75v.56Zm-3.77,1.25L48.15,20l-1-.56-5.22,8.37Z"/></g></g></svg>