<svg id="Capa_1" enable-background="new 0 0 512 512" height="512" viewBox="0 0 512 512" width="512" xmlns="http://www.w3.org/2000/svg"><g><path d="m226 144.789 19.395-19.395c5.859-5.859 15.352-5.859 21.211 0l19.394 19.395 15-15v-129.789h-90v129.789z"/><path d="m166 271c-41.353 0-75 33.647-75 75s33.647 75 75 75 75-33.647 75-75-33.647-75-75-75zm40.605 70.605-45 45c-5.859 5.859-15.352 5.859-21.211 0l-22.5-22.5c-5.859-5.859-5.859-15.352 0-21.211s15.352-5.859 21.211 0l11.895 11.895 34.395-34.395c5.859-5.859 15.352-5.859 21.211 0s5.859 15.352-.001 21.211z"/><path d="m497 0h-166v136c0 3.984-1.582 7.793-4.395 10.605l-30 30c-5.859 5.859-15.352 5.859-21.211 0l-19.394-19.394-19.395 19.395c-5.859 5.859-15.352 5.859-21.211 0l-30-30c-2.812-2.813-4.394-6.622-4.394-10.606v-136h-166c-8.291 0-15 6.709-15 15v482c0 8.291 6.709 15 15 15h482c8.291 0 15-6.709 15-15v-482c0-8.291-6.709-15-15-15zm-331 451c-57.891 0-105-47.109-105-105s47.109-105 105-105 105 47.109 105 105-47.109 105-105 105zm270-30h-60c-8.291 0-15-6.709-15-15s6.709-15 15-15h60c8.291 0 15 6.709 15 15s-6.709 15-15 15z"/></g></svg>