<svg xmlns="http://www.w3.org/2000/svg" viewBox="0 0 8.6 11.68"><defs><style>.a212914c-a7d4-41b0-82c2-b31c7eaa7e19{fill:#fff;fill-rule:evenodd;}</style></defs><g id="e0c7e3d3-1a19-48b4-bbed-3b46afa4c4d6" data-name="Слой 2"><g id="f098c732-065f-4a5a-8a8c-d7c8bcc5783f" data-name="Layer 1"><path class="a212914c-a7d4-41b0-82c2-b31c7eaa7e19" d="M4.3,0A4.31,4.31,0,0,0,0,4.3,4.14,4.14,0,0,0,.38,6.05a26.4,26.4,0,0,0,3.74,5.54.23.23,0,0,0,.36,0A26.4,26.4,0,0,0,8.22,6.05,4.14,4.14,0,0,0,8.6,4.3,4.31,4.31,0,0,0,4.3,0Zm0,6.53A2.23,2.23,0,1,1,6.53,4.3,2.23,2.23,0,0,1,4.3,6.53Z"/></g></g></svg>