<svg xmlns="http://www.w3.org/2000/svg" viewBox="0 0 13.38 11.47"><defs><style>.a556fb27-6ff4-4d37-87fe-c467131d0395{fill:#ccc;fill-rule:evenodd;}</style></defs><g id="ab22eba0-00b8-49a9-8538-185d9af27d70" data-name="Слой 2"><g id="f882a1d8-ca33-4ae4-bb38-8aab10c1b2b1" data-name="Layer 1"><path class="a556fb27-6ff4-4d37-87fe-c467131d0395" d="M6.69,11.47a.5.5,0,0,1-.34-.13L1.7,6.85a2,2,0,0,1-.21-.21c-.09-.09-.23-.25-.42-.47S.73,5.68.58,5.44a3.58,3.58,0,0,1-.4-.92A3.14,3.14,0,0,1,0,3.5,3.41,3.41,0,0,1,.94.94,3.61,3.61,0,0,1,3.58,0a3,3,0,0,1,.94.16A3.51,3.51,0,0,1,5.41.6a6.81,6.81,0,0,1,.7.5,7.57,7.57,0,0,1,.58.52,7.36,7.36,0,0,1,.57-.52A8.43,8.43,0,0,1,8,.6,3.36,3.36,0,0,1,8.86.16,3,3,0,0,1,9.8,0a3.63,3.63,0,0,1,2.64.94,3.44,3.44,0,0,1,.94,2.56,4.89,4.89,0,0,1-1.7,3.35L7,11.34A.52.52,0,0,1,6.69,11.47Z"/></g></g></svg>