<svg xmlns="http://www.w3.org/2000/svg" viewBox="0 0 26.8 20.84"><defs><style>.a7f29972-6b43-43da-81c9-862a3af866b8{fill:none;stroke:#9c3;stroke-linecap:round;stroke-linejoin:round;stroke-width:2px;}.ba08fdb8-0a57-4c99-81c1-a70f6987fa25,.e7fa5b41-fc4c-4337-8758-4b4a953a09ee{fill:#9c3;}.ba08fdb8-0a57-4c99-81c1-a70f6987fa25{stroke:#fff;stroke-miterlimit:22.93;stroke-width:1.5px;fill-rule:evenodd;}</style></defs><g id="b3abd0f8-a407-41c7-9451-0f8e482c3284" data-name="Слой 2"><g id="ab11b946-6e8e-4f12-aed4-a6bcd03c7ea7" data-name="Layer 1"><rect class="a7f29972-6b43-43da-81c9-862a3af866b8" x="1" y="4.7" width="24.8" height="15.14"/><rect class="e7fa5b41-fc4c-4337-8758-4b4a953a09ee" x="15.9" y="8.94" width="2" height="2"/><rect class="e7fa5b41-fc4c-4337-8758-4b4a953a09ee" x="20.13" y="8.94" width="2" height="2"/><rect class="e7fa5b41-fc4c-4337-8758-4b4a953a09ee" x="15.9" y="13.61" width="2" height="2"/><rect class="e7fa5b41-fc4c-4337-8758-4b4a953a09ee" x="20.13" y="13.61" width="2" height="2"/><rect class="e7fa5b41-fc4c-4337-8758-4b4a953a09ee" x="4.67" y="8.94" width="2" height="2"/><rect class="e7fa5b41-fc4c-4337-8758-4b4a953a09ee" x="8.9" y="8.94" width="2" height="2"/><rect class="e7fa5b41-fc4c-4337-8758-4b4a953a09ee" x="4.67" y="13.61" width="2" height="2"/><rect class="e7fa5b41-fc4c-4337-8758-4b4a953a09ee" x="8.9" y="13.61" width="2" height="2"/><polygon class="ba08fdb8-0a57-4c99-81c1-a70f6987fa25" points="9.31 3.12 11.68 3.12 11.68 0.75 15.13 0.75 15.13 3.12 17.5 3.12 17.5 6.57 15.13 6.57 15.13 8.94 11.68 8.94 11.68 6.57 9.31 6.57 9.31 3.12"/></g></g></svg>