<svg xmlns="http://www.w3.org/2000/svg" viewBox="0 0 21.79 26.8"><defs><style>.e0f74bdc-f675-45a7-8e1d-d54dbb6bbfe9{fill:none;stroke:#9c3;stroke-miterlimit:10;stroke-width:2px;}.a9dc4b45-533d-4f5c-a7b1-ad4b94cc03f6,.e0f74bdc-f675-45a7-8e1d-d54dbb6bbfe9{fill-rule:evenodd;}.a9dc4b45-533d-4f5c-a7b1-ad4b94cc03f6{fill:#9c3;}</style></defs><title>Ресурс 9</title><g id="bfc0d7b6-f88c-4147-b29b-54b71ad7b5cb" data-name="Слой 2"><g id="eba60cca-0d06-41dd-9198-151e5360d884" data-name="Layer 1"><path class="e0f74bdc-f675-45a7-8e1d-d54dbb6bbfe9" d="M10.54,1A9.9,9.9,0,0,0,1.18,12.77a2.28,2.28,0,0,0,.06.31,10.88,10.88,0,0,0,.67,2c1,2.34,3.29,6.28,8.43,10.55a.85.85,0,0,0,1.1,0c5.15-4.27,7.44-8.2,8.44-10.56a9.42,9.42,0,0,0,.66-2c.05-.2.07-.31.07-.31a10.6,10.6,0,0,0,.18-1.88A9.89,9.89,0,0,0,10.54,1Z"/><path class="a9dc4b45-533d-4f5c-a7b1-ad4b94cc03f6" d="M10.89,13.4a3.25,3.25,0,1,0-3.25-3.25A3.26,3.26,0,0,0,10.89,13.4Z"/></g></g></svg>