<svg xmlns="http://www.w3.org/2000/svg" viewBox="0 0 16.9 16.98"><defs><style>.b5ee7a3d-a1f6-460d-a707-9e19d1a3c039{fill:#f66;fill-rule:evenodd;}</style></defs><g id="ac17152c-cd93-4a08-aff9-a3cdc976c12a" data-name="Слой 2"><g id="e02ed229-546d-4689-898c-1740edeaa505" data-name="Layer 1"><path class="b5ee7a3d-a1f6-460d-a707-9e19d1a3c039" d="M13,3.3a2,2,0,0,0-.59-1.41L11.07.58A2,2,0,0,0,9.66,0H5a1,1,0,0,0-1,1V4.38h9V3.3Z"/><path class="b5ee7a3d-a1f6-460d-a707-9e19d1a3c039" d="M1,14.26H2.83V10.65H14.08v3.61h1.78a1,1,0,0,0,1-1V6.64a1,1,0,0,0-1-1H1a1,1,0,0,0-1,1v6.58a1,1,0,0,0,1,1ZM2.69,7a1.09,1.09,0,1,1-1.1,1.09A1.09,1.09,0,0,1,2.69,7Z"/><path class="b5ee7a3d-a1f6-460d-a707-9e19d1a3c039" d="M13,16.47V11.69H3.87v4.77a.52.52,0,0,0,.52.52h8.12a.52.52,0,0,0,.53-.51ZM6.2,13.82h4.51a.52.52,0,0,1,.51.44s0,.05,0,.08a.53.53,0,0,1-.52.52H6.2a.52.52,0,0,1-.52-.52v-.08A.52.52,0,0,1,6.2,13.82Z"/></g></g></svg>