<svg xmlns="http://www.w3.org/2000/svg" viewBox="0 0 26.84 26.84"><defs><style>.ae43a65b-02ce-48c7-8f32-5ce70bc9d870{fill:#9c3;fill-rule:evenodd;}</style></defs><g id="b0df2dae-2fab-46b5-a43e-b8d98fbadff5" data-name="Слой 2"><g id="a8da03a6-c472-4189-a36b-b4f36d3cd885" data-name="Layer 1"><path class="ae43a65b-02ce-48c7-8f32-5ce70bc9d870" d="M17.17,2.18a2.31,2.31,0,0,0-.36,1.31,5.33,5.33,0,0,0,.75,2.35,4.17,4.17,0,0,1,.58,1.64c0,.27-.07.34-.29.41A6.83,6.83,0,0,1,16.06,8a5.26,5.26,0,0,0-4.33,1.56c-.22.21-.33.22-1.08-.15a2.26,2.26,0,0,0-2.9.15A2.61,2.61,0,0,0,7.05,12c-.77-.3-1.83-.44-2-.77-.06-.15-.16-.82,1.16-3,.49-.79,1.08-2,.54-2.89A1.89,1.89,0,0,0,5.6,4.53a11.79,11.79,0,0,1,7.82-3,11.93,11.93,0,0,1,3.75.61Zm8.1,11.24A11.86,11.86,0,0,0,18.87,2.9c-.41,0-.49.22-.49.59A4.27,4.27,0,0,0,19,5.13a5.33,5.33,0,0,1,.75,2.35,1.89,1.89,0,0,1-1.37,1.91,7.76,7.76,0,0,1-2.28.2,3.78,3.78,0,0,0-3.22,1.1,2.28,2.28,0,0,1-2.9.15c-.75-.38-.86-.37-1.08-.15A1.15,1.15,0,0,0,8.69,12,2.37,2.37,0,0,0,11,13.33a3.07,3.07,0,0,0,2.18-.66,2.8,2.8,0,0,1,1.8-.67,2,2,0,0,1,1.73,1.28,3,3,0,0,0,2.46,1.66,3.84,3.84,0,0,1,1.18.41A1.59,1.59,0,0,1,21,16.77c0,2.3-1.65,3.85-2.85,5a10.78,10.78,0,0,0-.9.92c-.24.28-.25.4-.25.4s0,1.2,0,1.31,0,.22,0,.33a11.86,11.86,0,0,0,8.25-11.29Zm-9.8,11a1.26,1.26,0,0,1-.3.63c-.21-.28-.77-1.44-.77-5.62,0-1.07-1-1.63-1.77-2.08a3.79,3.79,0,0,1-.89-.61v-1.3a1.48,1.48,0,0,0-.1-.57,4.33,4.33,0,0,0,2.42-.93,1.34,1.34,0,0,1,.88-.37h0a2,2,0,0,1,.36.51,4.52,4.52,0,0,0,3.47,2.39,3.53,3.53,0,0,1,.67.19s0,0,0,.1c0,1.62-1.25,2.8-2.36,3.84-.88.83-1.64,1.55-1.64,2.46v1.35Zm-13.9-11A11.86,11.86,0,0,0,13.42,25.27h.1a16.88,16.88,0,0,1-.69-5.84c-.05-.18-.68-.54-1-.71-.75-.43-1.68-1-1.68-1.95V15.45A18.73,18.73,0,0,0,6.64,13.5c-.88-.41-2.5-.41-3-1.72-.38-1,0-2.28,1.29-4.36.55-.89.52-1.23.51-1.28S5.11,6,4.21,6a11.8,11.8,0,0,0-2.64,7.44ZM13.42,26.84A13.42,13.42,0,1,0,0,13.42,13.45,13.45,0,0,0,13.42,26.84Z"/></g></g></svg>