<?xml version="1.0" encoding="UTF-8"?>
<!DOCTYPE svg PUBLIC "-//W3C//DTD SVG 1.1//EN" "http://www.w3.org/Graphics/SVG/1.1/DTD/svg11.dtd">
<!-- Creator: CorelDRAW 2019 (64-Bit) -->
<svg xmlns="http://www.w3.org/2000/svg" xml:space="preserve" width="13px" height="24px" version="1.1" style="shape-rendering:geometricPrecision; text-rendering:geometricPrecision; image-rendering:optimizeQuality; fill-rule:evenodd; clip-rule:evenodd"
viewBox="0 0 0.42 0.76"
 xmlns:xlink="http://www.w3.org/1999/xlink"
 xmlns:xodm="http://www.corel.com/coreldraw/odm/2003">
 <defs>
  <style type="text/css">
   <![CDATA[
    .fil0 {fill:#99CC33;fill-rule:nonzero}
   ]]>
  </style>
 </defs>
 <g id="Layer_x0020_1">
  <metadata id="CorelCorpID_0Corel-Layer"/>
  <path class="fil0" d="M0.08 0l0.26 0c0.02,0 0.04,0.01 0.06,0.02 0.01,0.02 0.02,0.04 0.02,0.06l0 0.6c0,0.02 -0.01,0.04 -0.02,0.06 -0.02,0.01 -0.04,0.02 -0.06,0.02l-0.26 0c-0.02,0 -0.04,-0.01 -0.06,-0.02 -0.01,-0.02 -0.02,-0.04 -0.02,-0.06l0 -0.6c0,-0.02 0.01,-0.04 0.02,-0.06 0.02,-0.01 0.04,-0.02 0.06,-0.02zm0.2 0.06l0 0.01c0,0.01 0,0.02 0,0.02 -0.01,0.01 -0.01,0.01 -0.01,0.01l-0.12 0c0,0 0,0 -0.01,-0.01 0,0 -0.01,-0.01 -0.01,-0.02l0 -0.01 -0.05 0c0,0 -0.01,0 -0.01,0 -0.01,0.01 -0.01,0.01 -0.01,0.02l0 0.6c0,0.01 0,0.02 0.01,0.02 0,0 0.01,0.01 0.01,0.01l0.26 0c0,0 0.01,-0.01 0.01,-0.01 0.01,0 0.01,-0.01 0.01,-0.02l0 -0.6c0,-0.01 0,-0.01 -0.01,-0.02 0,0 -0.01,0 -0.01,0l-0.06 0z"/>
 </g>
</svg>
