<svg xmlns="http://www.w3.org/2000/svg" viewBox="0 0 22.47 20.77"><defs><style>.b77daf99-9be5-4a3c-ab99-89370a78b1c7{fill:#9c3;fill-rule:evenodd;}</style></defs><g id="ec04bd96-7658-4c55-afe1-c253e0d451cc" data-name="Слой 2"><g id="e97fc264-5e03-4031-8982-a464954bfc99" data-name="Layer 1"><path class="b77daf99-9be5-4a3c-ab99-89370a78b1c7" d="M22.42,8.77A.46.46,0,0,0,22,8.5H20.6a10.38,10.38,0,1,0-1.22,7.08.94.94,0,0,0-1.63-.95,8.51,8.51,0,1,1,.91-6.13H17.27a.45.45,0,0,0-.42.27.46.46,0,0,0,.06.5l2.36,2.83a.46.46,0,0,0,.36.17A.48.48,0,0,0,20,12.1l2.36-2.83A.48.48,0,0,0,22.42,8.77Z"/><path class="b77daf99-9be5-4a3c-ab99-89370a78b1c7" d="M10.38,2.36a.94.94,0,0,0-.94.94V9a1.65,1.65,0,0,0,1,3,1.59,1.59,0,0,0,.69-.16l3.29,1.89a.9.9,0,0,0,.47.13,1,1,0,0,0,.82-.47,1,1,0,0,0-.35-1.29L12,10.24A1.64,1.64,0,0,0,11.33,9V3.3a.94.94,0,0,0-.95-.94Zm0,8.73a.71.71,0,1,1,.71-.71A.7.7,0,0,1,10.38,11.09Z"/></g></g></svg>