<svg xmlns="http://www.w3.org/2000/svg" width="36" height="35" viewBox="0 0 36 35"><g><g><path fill="#4c75a3" d="M.719 34.956h34.559V.396H.719z"/></g><g><path fill="#fff" d="M24.114 18.075a8.67 8.67 0 0 1 .819-1.238c.222-.247.43-.51.62-.783 1.099-1.45 1.566-2.362 1.414-2.759l-.094-.024a1.34 1.34 0 0 0-.291-.139 1.12 1.12 0 0 0-.3-.039c-.1 0-.2.012-.297.04h-3.05l-.13.103a.278.278 0 0 1-.07.152c-.267.71-.61 1.393-1.016 2.033-.188.35-.397.691-.62 1.017-.132.23-.298.44-.49.62a1.888 1.888 0 0 1-.363.328.268.268 0 0 1-.268.093h-.13l-.221-.234-.082-.316a1.75 1.75 0 0 0 0-.384 1.325 1.325 0 0 0 0-.469.98.98 0 0 0 0-.373v-.795a3.142 3.142 0 0 0 0-.644 1.338 1.338 0 0 0 0-.525.789.789 0 0 0 0-.409.513.513 0 0 0-.117-.292.414.414 0 0 0-.2-.234 1.293 1.293 0 0 0-.326-.128 5.763 5.763 0 0 0-1.111-.108l-.138.002a6.692 6.692 0 0 0-2.256.2l-.327.291c-.071.141-.13.234-.071.234.32.012.616.177.795.444l.117.082c.023.07.128.223.128.42 0 .2 0 .434.082.667v1.17c-.05.248-.08.504-.082.76-.04.137-.091.275-.151.407a.593.593 0 0 0-.141.34H15.443a.515.515 0 0 1-.327-.129 1.19 1.19 0 0 1-.385-.362 2.674 2.674 0 0 1-.468-.655 4.514 4.514 0 0 1-.526-.946l-.164-.293c-.082-.176-.233-.433-.385-.76s-.304-.642-.432-.946a.64.64 0 0 0-.223-.328l-.116-.163a1.146 1.146 0 0 1-.234 0l-2.583.035a.679.679 0 0 0-.573.222v.164a.29.29 0 0 0 0 .233c.366.877.79 1.737 1.263 2.561.347.675.739 1.334 1.168 1.961.294.49.624.96.982 1.404.184.314.409.606.666.864a.994.994 0 0 0 .257.305l.199.21c.218.187.45.365.69.525.303.223.62.432.946.62.397.208.817.374 1.25.49a3.943 3.943 0 0 0 1.345.165h1.168a.788.788 0 0 0 .49-.2v-.058a.152.152 0 0 0 .094-.163.351.351 0 0 0 0-.257 7.263 7.263 0 0 1 0-.725c.072-.172.135-.347.187-.525l.198-.27.164-.128h.094a.51.51 0 0 1 .526.14c.22.148.415.335.572.55.199.198.409.444.654.724.203.21.424.407.655.584l.199.106c.148.104.315.181.49.222a.838.838 0 0 0 .527 0h2.338a.834.834 0 0 0 .549-.129c.152-.07.233-.14.233-.222a.4.4 0 0 0 0-.327.376.376 0 0 0-.069-.269v-.004a.094.094 0 0 0-.07-.09 8.298 8.298 0 0 0-1.8-2.068v-.07a10.35 10.35 0 0 1-.748-.748.783.783 0 0 1-.13-.76z"/></g></g></svg>