<svg xmlns="http://www.w3.org/2000/svg" viewBox="0 0 11.92 10.09"><defs><style>.abee658d-a653-4593-9134-f706cd3830b9{fill:#fff;fill-rule:evenodd;}</style></defs><g id="a9372a7d-f3d7-4267-b5bd-4090002613b2" data-name="Слой 2"><g id="bc7bf847-4180-440a-9045-022348ad0ba4" data-name="Layer 1"><path class="abee658d-a653-4593-9134-f706cd3830b9" d="M8,0H9.39L3.92,10.09H2.57L8,0ZM0,2.47A2.71,2.71,0,0,0,.29,3.73a2,2,0,0,0,.87.91A2.92,2.92,0,0,0,2.56,5a2.53,2.53,0,0,0,1.86-.68A2.41,2.41,0,0,0,5.1,2.47,2.43,2.43,0,0,0,4.42.67,2.53,2.53,0,0,0,2.56,0a2.92,2.92,0,0,0-1.4.32,2,2,0,0,0-.87.91A2.69,2.69,0,0,0,0,2.47Zm1.81,0a2,2,0,0,0,.25,1.15.58.58,0,0,0,.5.24A.55.55,0,0,0,3,3.64,2,2,0,0,0,3.3,2.49,2,2,0,0,0,3,1.34a.54.54,0,0,0-.48-.23.57.57,0,0,0-.5.23,2,2,0,0,0-.25,1.15Zm5,5.1A2.82,2.82,0,0,0,7.1,8.84,2,2,0,0,0,8,9.75a2.77,2.77,0,0,0,1.39.32,2.52,2.52,0,0,0,1.87-.68,2.44,2.44,0,0,0,.68-1.8,2.46,2.46,0,0,0-.68-1.81A2.56,2.56,0,0,0,9.37,5.1,2.88,2.88,0,0,0,8,5.42a2,2,0,0,0-.88.92,2.82,2.82,0,0,0-.28,1.25Zm1.8,0a2,2,0,0,0,.26,1.16A.54.54,0,0,0,9.37,9a.57.57,0,0,0,.49-.23,2,2,0,0,0,.25-1.16,2.06,2.06,0,0,0-.25-1.16.59.59,0,0,0-.49-.23.55.55,0,0,0-.49.24A2,2,0,0,0,8.62,7.6Z"/></g></g></svg>