<svg xmlns="http://www.w3.org/2000/svg" viewBox="0 0 31.74 31.74"><defs><style>.bdca0169-1be2-4b02-becf-2d31e51fe26f{fill:none;stroke:#fff;stroke-miterlimit:22.93;stroke-width:4px;}.abe840a3-c294-48ff-8bd8-00f62ab898ad,.bdca0169-1be2-4b02-becf-2d31e51fe26f{fill-rule:evenodd;}.abe840a3-c294-48ff-8bd8-00f62ab898ad{fill:#fff;}</style></defs><g id="e217ac7d-30d9-4626-9bc5-d04426e9df5f" data-name="Слой 2"><g id="a492d583-73c3-4ac1-8be7-f3c2ced28486" data-name="Layer 1"><g id="a4a5dbd8-167e-4af8-9480-128a5b8d8473" data-name="errore_win"><g id="fdc85588-d04d-4779-8737-8301b5f44ffe" data-name="icon"><path class="bdca0169-1be2-4b02-becf-2d31e51fe26f" d="M15.87,29.74A13.87,13.87,0,1,0,2,15.87,13.9,13.9,0,0,0,15.87,29.74Z"/><path class="abe840a3-c294-48ff-8bd8-00f62ab898ad" d="M17.43,17.76H14.37L13.88,6.59h4l-.48,11.17Zm-3.66,3.48a1.73,1.73,0,0,1,.6-1.36,2.35,2.35,0,0,1,3,0,1.84,1.84,0,0,1,0,2.72,2.35,2.35,0,0,1-3,0A1.73,1.73,0,0,1,13.77,21.24Z"/></g></g></g></g></svg>