<svg xmlns="http://www.w3.org/2000/svg" viewBox="0 0 21.93 21.93"><defs><style>.a56d85d6-972c-4108-a605-17ff90bd48db{fill:#b3b34e;fill-rule:evenodd;}</style></defs><g id="aa3ff008-844c-4a7d-b6c1-d80dbf16a84a" data-name="Слой 2"><g id="b1d07c83-b61c-4fab-b762-26ce6bc07e8b" data-name="Layer 1"><g id="aec6d0a0-0890-4fe3-8cd0-dbc1d0aa67f4" data-name="Login_win"><g id="aaece94c-a74b-4373-af36-d75f3438665e" data-name="title_close"><path class="a56d85d6-972c-4108-a605-17ff90bd48db" d="M11,2a9,9,0,0,1,9,9,8.87,8.87,0,0,1-1.7,5.21,8.47,8.47,0,0,0-4-3.5,5,5,0,1,0-6.62,0,8.51,8.51,0,0,0-4,3.5A8.87,8.87,0,0,1,2,11a9,9,0,0,1,9-9ZM3.22,18.72l0,0a10.77,10.77,0,0,0,1.57,1.29l.19.12a11.27,11.27,0,0,0,1.68.9l.21.07a9.75,9.75,0,0,0,1.86.56l.12,0a10.82,10.82,0,0,0,2.06.21A10.84,10.84,0,0,0,13,21.72h.12A10.44,10.44,0,0,0,15,21.14l.21-.07a11.27,11.27,0,0,0,1.68-.9l.2-.12a10.4,10.4,0,0,0,1.54-1.27l.08-.06v0a11,11,0,1,0-15.51,0Z"/></g></g></g></g></svg>